<svg id="Слой_1" data-name="Слой 1" xmlns="http://www.w3.org/2000/svg" width="212.6" height="50.1" viewBox="0 0 212.6 50.1">
  <title>logo</title>
  <g>
    <path d="M58.23,22.91h2.5L62,15.83s1.41-6,5.11-6.36,2,6.46,2,6.46l-1.3,7h2.55l1.41-7.08s1.93-7.14-2.14-8.13-6.56,2.66-6.56,2.66L65,.82H62.55Z" style="fill: #fff"/>
    <path d="M93.19,7.91a13.88,13.88,0,0,0-8.49.47,10.68,10.68,0,0,0-6,8.8c-.15,5.06,3.25,6.75,6.15,5.73,2.18-.77,4.06-3.85,4.06-3.85l-.26,3.85h2.55a53,53,0,0,1,.47-6.72A76.35,76.35,0,0,1,93.19,7.91ZM88.13,18c-1.92,3-4.34,4.13-6,2.14-1.51-1.77-.62-7,2.29-9.06a8.81,8.81,0,0,1,5.94-1.35S90.06,15,88.13,18Z" style="fill: #fff"/>
    <path d="M101.26,7.7l-2.5,15.21h2.5l1.36-6.85A11.18,11.18,0,0,1,105,11.21c1.77-1.84,3.09-1.22,3.09-1.22l.63-2.55a4.13,4.13,0,0,0-3.18.93,7.67,7.67,0,0,0-2.45,2.71l.65-3.39Z" style="fill: #fff"/>
    <path d="M126.43,7.91a13.88,13.88,0,0,0-8.49.47,10.68,10.68,0,0,0-6,8.8c-.15,5.06,3.25,6.75,6.15,5.73,2.18-.77,4.06-3.85,4.06-3.85l-.26,3.85h2.55a53,53,0,0,1,.47-6.72A76.34,76.34,0,0,1,126.43,7.91ZM121.37,18c-1.92,3-4.34,4.13-6,2.14-1.51-1.77-.62-7,2.29-9.06a8.81,8.81,0,0,1,5.94-1.35S123.3,15,121.37,18Z" style="fill: #fff"/>
    <path d="M131.94,22.91,134.7,7.75h2.19l-.42,2.66a6.32,6.32,0,0,1,5.16-3,3.31,3.31,0,0,1,3.8,3.16,6.41,6.41,0,0,1,6-3.17c4.17.31,3,5.83,3,5.83l-1.72,9.69h-2.55L151.79,14s1.1-4.31-2-4.31c-4,0-4.79,5.09-4.79,5.09l-1.46,8.13H140.9l1.56-8.28s1.46-5-1.41-5c-4.47,0-5.26,5.74-5.26,5.74l-1.35,7.51Z" style="fill: #fff"/>
    <path d="M171.9,7.45c-3.85-.42-6.36,3-6.36,3L167.63.77H165L161.53,18s-.93,3.78,2.6,4.95c3.76,1.25,7-1.12,9-3.33C177,15.14,175.75,7.87,171.9,7.45Zm-6.11,13.34c-4.17-1.16.51-12.14,5-11S171.46,22.36,165.79,20.79Z" style="fill: #fff"/>
    <path d="M193.21,9.05c-1.44-1.78-4.84-2.27-7.61-.21-3.13,2.33-5.19,7.58-3.91,10.68,2.76,6.67,10.21,2.5,10.21,2.5l-.47-1.82s-3.32,1.85-5.92.45-1.68-4.51-1.68-4.51,5.43.23,8.33-1.61A4,4,0,0,0,193.21,9.05Zm-3.07,4.17c-2.08,1-6,.86-6,.86a8.79,8.79,0,0,1,2.77-3.72c1.45-1,3.18-.89,3.87-.19A1.9,1.9,0,0,1,190.13,13.22Z" style="fill: #fff"/>
    <path d="M211.13,9.05c-1.44-1.78-4.84-2.27-7.61-.21-3.13,2.33-5.19,7.58-3.91,10.68,2.76,6.67,10.21,2.5,10.21,2.5l-.47-1.82s-3.32,1.85-5.92.45-1.68-4.51-1.68-4.51,5.43.23,8.33-1.61A4,4,0,0,0,211.13,9.05Zm-3.07,4.17c-2.08,1-6,.86-6,.86a8.79,8.79,0,0,1,2.77-3.72c1.45-1,3.18-.89,3.87-.19A1.9,1.9,0,0,1,208.05,13.22Z" style="fill: #fff"/>
  </g>
  <g>
    <path d="M60.05,34.43V32L57.8,28.6h.94l1.15,1.76q.32.49.59,1,.26-.46.64-1l1.13-1.71h.9L60.82,32v2.47Z" style="fill: #fff"/>
    <path d="M63.8,31.59a3.17,3.17,0,0,1,.78-2.27,2.65,2.65,0,0,1,2-.82,2.8,2.8,0,0,1,1.46.39A2.53,2.53,0,0,1,69,30a3.5,3.5,0,0,1,.34,1.57A3.44,3.44,0,0,1,69,33.11a2.44,2.44,0,0,1-1,1.06,2.9,2.9,0,0,1-1.42.36,2.76,2.76,0,0,1-1.47-.4,2.56,2.56,0,0,1-1-1.09A3.29,3.29,0,0,1,63.8,31.59Zm.8,0a2.34,2.34,0,0,0,.57,1.66,2,2,0,0,0,2.86,0,2.48,2.48,0,0,0,.56-1.74,3,3,0,0,0-.24-1.24,1.85,1.85,0,0,0-.7-.82,1.92,1.92,0,0,0-1-.29,2,2,0,0,0-1.41.56A2.51,2.51,0,0,0,64.59,31.6Z" style="fill: #fff"/>
    <path d="M74.38,28.6h.77V32a4,4,0,0,1-.2,1.4,1.71,1.71,0,0,1-.72.84,2.54,2.54,0,0,1-1.36.32,2.81,2.81,0,0,1-1.34-.28,1.61,1.61,0,0,1-.74-.82A3.89,3.89,0,0,1,70.57,32V28.6h.77V32a3.3,3.3,0,0,0,.14,1.12,1.07,1.07,0,0,0,.49.56,1.68,1.68,0,0,0,.84.19A1.61,1.61,0,0,0,74,33.45,2.23,2.23,0,0,0,74.38,32Z" style="fill: #fff"/>
    <path d="M78.11,34.43V29.29H76.19V28.6h4.62v.69H78.88v5.14Z" style="fill: #fff"/>
    <path d="M81.82,34.43V28.6h.77V31h3V28.6h.77v5.83h-.77V31.68h-3v2.75Z" style="fill: #fff"/>
    <path d="M90.33,34.43V28.6h4.22v.69H91.1v1.79h3.23v.68H91.1v2h3.58v.69Z" style="fill: #fff"/>
    <path d="M95.91,34.43V28.6h1.16l1.38,4.13q.19.58.28.86.1-.32.31-.93l1.4-4.06h1v5.83h-.74V29.55L99,34.43h-.7l-1.69-5v5Z" style="fill: #fff"/>
    <path d="M102.91,34.43V28.6h2.2a5.32,5.32,0,0,1,.89.06,1.75,1.75,0,0,1,.72.27,1.43,1.43,0,0,1,.47.56,1.9,1.9,0,0,1-.3,2.06,2.27,2.27,0,0,1-1.71.51h-1.5v2.37Zm.77-3.06h1.51a1.6,1.6,0,0,0,1.06-.28,1,1,0,0,0,.31-.78,1.05,1.05,0,0,0-.18-.63.86.86,0,0,0-.49-.34,3.33,3.33,0,0,0-.72-.05h-1.49Z" style="fill: #fff"/>
    <path d="M108.5,34.43V28.6h.77v5.14h2.87v.69Z" style="fill: #fff"/>
    <path d="M113,31.59a3.17,3.17,0,0,1,.78-2.27,2.65,2.65,0,0,1,2-.82,2.8,2.8,0,0,1,1.46.39,2.53,2.53,0,0,1,1,1.08,3.5,3.5,0,0,1,.34,1.57,3.44,3.44,0,0,1-.36,1.59,2.44,2.44,0,0,1-1,1.06,2.9,2.9,0,0,1-1.42.36,2.76,2.76,0,0,1-1.47-.4,2.56,2.56,0,0,1-1-1.09A3.29,3.29,0,0,1,113,31.59Zm.8,0a2.34,2.34,0,0,0,.57,1.66,2,2,0,0,0,2.86,0,2.48,2.48,0,0,0,.56-1.74,3,3,0,0,0-.24-1.24,1.85,1.85,0,0,0-.7-.82,1.92,1.92,0,0,0-1-.29,2,2,0,0,0-1.41.56A2.51,2.51,0,0,0,113.81,31.6Z" style="fill: #fff"/>
    <path d="M121.42,34.43V32l-2.25-3.36h.94l1.15,1.76q.32.49.59,1,.26-.46.64-1l1.13-1.71h.9L122.19,32v2.47Z" style="fill: #fff"/>
    <path d="M125.37,34.43V28.6h1.16l1.38,4.13q.19.58.28.86.1-.32.31-.93l1.4-4.06h1v5.83h-.74V29.55l-1.7,4.88h-.7l-1.69-5v5Z" style="fill: #fff"/>
    <path d="M132.39,34.43V28.6h4.22v.69h-3.45v1.79h3.23v.68h-3.23v2h3.58v.69Z" style="fill: #fff"/>
    <path d="M138,34.43V28.6h.79l3.06,4.58V28.6h.74v5.83h-.79l-3.06-4.58v4.58Z" style="fill: #fff"/>
    <path d="M145.55,34.43V29.29h-1.92V28.6h4.62v.69h-1.93v5.14Z" style="fill: #fff"/>
    <path d="M150.45,34.43l2.24-5.83h.83l2.39,5.83H155l-.68-1.77h-2.44l-.64,1.77Zm1.68-2.4h2l-.61-1.61q-.28-.74-.41-1.21a7.42,7.42,0,0,1-.31,1.11Z" style="fill: #fff"/>
    <path d="M160.87,32.38l.77.19a2.6,2.6,0,0,1-.87,1.45,2.4,2.4,0,0,1-1.54.5,2.77,2.77,0,0,1-1.53-.38,2.4,2.4,0,0,1-.9-1.11,4,4,0,0,1-.31-1.56,3.44,3.44,0,0,1,.35-1.59,2.39,2.39,0,0,1,1-1,2.89,2.89,0,0,1,1.41-.35,2.39,2.39,0,0,1,1.47.45,2.31,2.31,0,0,1,.83,1.25l-.76.18a1.8,1.8,0,0,0-.59-.93,1.57,1.57,0,0,0-1-.29,1.89,1.89,0,0,0-1.12.32,1.7,1.7,0,0,0-.63.87,3.47,3.47,0,0,0-.18,1.12,3.56,3.56,0,0,0,.22,1.3,1.62,1.62,0,0,0,.67.83,1.9,1.9,0,0,0,1,.27,1.66,1.66,0,0,0,1.1-.37A1.92,1.92,0,0,0,160.87,32.38Z" style="fill: #fff"/>
    <path d="M166.94,32.38l.77.19a2.6,2.6,0,0,1-.87,1.45,2.4,2.4,0,0,1-1.54.5,2.77,2.77,0,0,1-1.53-.38,2.4,2.4,0,0,1-.9-1.11,4,4,0,0,1-.31-1.56,3.44,3.44,0,0,1,.35-1.59,2.39,2.39,0,0,1,1-1,2.89,2.89,0,0,1,1.41-.35,2.39,2.39,0,0,1,1.47.45,2.31,2.31,0,0,1,.83,1.25l-.76.18a1.8,1.8,0,0,0-.59-.93,1.57,1.57,0,0,0-1-.29,1.89,1.89,0,0,0-1.12.32,1.7,1.7,0,0,0-.63.87,3.47,3.47,0,0,0-.18,1.12,3.56,3.56,0,0,0,.22,1.3,1.62,1.62,0,0,0,.67.83,1.9,1.9,0,0,0,1,.27,1.66,1.66,0,0,0,1.1-.37A1.92,1.92,0,0,0,166.94,32.38Z" style="fill: #fff"/>
    <path d="M168.87,34.43V28.6h4.22v.69h-3.45v1.79h3.23v.68h-3.23v2h3.58v.69Z" style="fill: #fff"/>
    <path d="M174.44,34.43V28.6h.77v5.14h2.87v.69Z" style="fill: #fff"/>
    <path d="M179.21,34.43V28.6h4.22v.69H180v1.79h3.23v.68H180v2h3.58v.69Z" style="fill: #fff"/>
    <path d="M184.83,34.43V28.6h2.59a3.44,3.44,0,0,1,1.19.16,1.3,1.3,0,0,1,.65.56,1.65,1.65,0,0,1,.24.88,1.47,1.47,0,0,1-.4,1,2,2,0,0,1-1.24.54,2,2,0,0,1,.47.29,4,4,0,0,1,.64.78l1,1.59h-1l-.77-1.21q-.34-.53-.56-.8a1.75,1.75,0,0,0-.39-.39,1.18,1.18,0,0,0-.35-.16,2.32,2.32,0,0,0-.43,0h-.9v2.59Zm.77-3.26h1.66a2.47,2.47,0,0,0,.83-.11.88.88,0,0,0,.45-.35,1,1,0,0,0,.16-.52.87.87,0,0,0-.3-.68,1.4,1.4,0,0,0-.95-.27H185.6Z" style="fill: #fff"/>
    <path d="M190.24,34.43l2.24-5.83h.83l2.39,5.83h-.88l-.68-1.77H191.7l-.64,1.77Zm1.68-2.4h2l-.61-1.61q-.28-.74-.41-1.21a7.42,7.42,0,0,1-.31,1.11Z" style="fill: #fff"/>
    <path d="M197.39,34.43V29.29h-1.92V28.6h4.62v.69h-1.93v5.14Z" style="fill: #fff"/>
    <path d="M200.69,31.59a3.17,3.17,0,0,1,.78-2.27,2.65,2.65,0,0,1,2-.82,2.8,2.8,0,0,1,1.46.39,2.53,2.53,0,0,1,1,1.08,3.5,3.5,0,0,1,.34,1.57,3.44,3.44,0,0,1-.36,1.59,2.44,2.44,0,0,1-1,1.06,2.9,2.9,0,0,1-1.42.36,2.76,2.76,0,0,1-1.47-.4A2.56,2.56,0,0,1,201,33,3.29,3.29,0,0,1,200.69,31.59Zm.8,0a2.34,2.34,0,0,0,.57,1.66,2,2,0,0,0,2.86,0,2.48,2.48,0,0,0,.56-1.74,3,3,0,0,0-.24-1.24,1.85,1.85,0,0,0-.7-.82,1.92,1.92,0,0,0-1-.29,2,2,0,0,0-1.41.56A2.51,2.51,0,0,0,201.48,31.6Z" style="fill: #fff"/>
    <path d="M207.46,34.43V28.6H210a3.44,3.44,0,0,1,1.19.16,1.3,1.3,0,0,1,.65.56,1.65,1.65,0,0,1,.24.88,1.47,1.47,0,0,1-.4,1,2,2,0,0,1-1.24.54,2,2,0,0,1,.47.29,4,4,0,0,1,.64.78l1,1.59h-1l-.77-1.21q-.34-.53-.56-.8a1.75,1.75,0,0,0-.39-.39,1.18,1.18,0,0,0-.35-.16,2.32,2.32,0,0,0-.43,0h-.9v2.59Zm.77-3.26h1.66a2.47,2.47,0,0,0,.83-.11.88.88,0,0,0,.45-.35,1,1,0,0,0,.16-.52.87.87,0,0,0-.3-.68,1.4,1.4,0,0,0-.95-.27h-1.85Z" style="fill: #fff"/>
  </g>
  <g>
    <path d="M82.59,47.58l-1.75-7.33h1.51l1.1,5,1.34-5h1.76l1.28,5.12L89,40.25h1.49l-1.78,7.33H87.11L85.65,42.1l-1.46,5.48Z" style="fill: #fff"/>
    <path d="M92.28,44a4.66,4.66,0,0,1,.33-1.88,3.47,3.47,0,0,1,.68-1,2.86,2.86,0,0,1,.95-.66,4,4,0,0,1,1.58-.29,3.44,3.44,0,0,1,2.59,1,3.85,3.85,0,0,1,1,2.79,3.84,3.84,0,0,1-1,2.78,3.41,3.41,0,0,1-2.58,1,3.45,3.45,0,0,1-2.6-1A3.78,3.78,0,0,1,92.28,44Zm1.52,0a2.75,2.75,0,0,0,.58,1.89,2,2,0,0,0,2.91,0,2.8,2.8,0,0,0,.57-1.91A2.76,2.76,0,0,0,97.31,42a2,2,0,0,0-2.94,0A2.77,2.77,0,0,0,93.81,43.91Z" style="fill: #fff"/>
    <path d="M101.92,47.58V40.25H105a5.34,5.34,0,0,1,1.71.2,1.69,1.69,0,0,1,.85.7,2.12,2.12,0,0,1,.32,1.16,2,2,0,0,1-.48,1.36,2.32,2.32,0,0,1-1.45.68,3.47,3.47,0,0,1,.79.61,8.33,8.33,0,0,1,.84,1.19l.89,1.43h-1.77L105.67,46a10.4,10.4,0,0,0-.78-1.08,1.14,1.14,0,0,0-.44-.31,2.44,2.44,0,0,0-.74-.08h-.3v3.06Zm1.48-4.23h1.09a5.63,5.63,0,0,0,1.33-.09.79.79,0,0,0,.41-.31,1,1,0,0,0,.15-.55.88.88,0,0,0-.2-.6.91.91,0,0,0-.56-.29q-.18,0-1.08,0H103.4Z" style="fill: #fff"/>
    <path d="M110.7,47.58V40.25h1.48V43.5l3-3.25h2L114.4,43.1l2.91,4.47H115.4l-2-3.44-1.2,1.23v2.21Z" style="fill: #fff"/>
    <path d="M123.67,47.58V40.25h5v1.24h-3.54v1.73h3.06v1.24h-3.06v3.11Z" style="fill: #fff"/>
    <path d="M131,44a4.66,4.66,0,0,1,.33-1.88,3.47,3.47,0,0,1,.68-1,2.86,2.86,0,0,1,.95-.66,4,4,0,0,1,1.58-.29,3.44,3.44,0,0,1,2.59,1,3.85,3.85,0,0,1,1,2.79,3.84,3.84,0,0,1-1,2.78,3.41,3.41,0,0,1-2.58,1,3.45,3.45,0,0,1-2.6-1A3.78,3.78,0,0,1,131,44Zm1.52,0a2.75,2.75,0,0,0,.58,1.89,2,2,0,0,0,2.91,0,2.8,2.8,0,0,0,.57-1.91A2.76,2.76,0,0,0,136,42a2,2,0,0,0-2.94,0A2.77,2.77,0,0,0,132.51,43.91Z" style="fill: #fff"/>
    <path d="M140.63,47.58V40.25h3.11a5.34,5.34,0,0,1,1.71.2,1.69,1.69,0,0,1,.85.7,2.12,2.12,0,0,1,.32,1.16,2,2,0,0,1-.48,1.36,2.32,2.32,0,0,1-1.45.68,3.47,3.47,0,0,1,.79.61,8.33,8.33,0,0,1,.84,1.19l.89,1.43h-1.77L144.38,46a10.4,10.4,0,0,0-.78-1.08,1.14,1.14,0,0,0-.44-.31,2.44,2.44,0,0,0-.74-.08h-.3v3.06Zm1.48-4.23h1.09a5.63,5.63,0,0,0,1.33-.09.79.79,0,0,0,.41-.31,1,1,0,0,0,.15-.55.88.88,0,0,0-.2-.6.91.91,0,0,0-.56-.29q-.18,0-1.08,0h-1.15Z" style="fill: #fff"/>
    <path d="M154.64,47.58l-1.75-7.33h1.51l1.1,5,1.34-5h1.76l1.28,5.12L161,40.25h1.49l-1.78,7.33h-1.57L157.7,42.1l-1.46,5.48Z" style="fill: #fff"/>
    <path d="M164.34,44a4.66,4.66,0,0,1,.33-1.88,3.47,3.47,0,0,1,.68-1,2.86,2.86,0,0,1,.95-.66,4,4,0,0,1,1.58-.29,3.44,3.44,0,0,1,2.59,1,3.85,3.85,0,0,1,1,2.79,3.84,3.84,0,0,1-1,2.78,3.41,3.41,0,0,1-2.58,1,3.45,3.45,0,0,1-2.6-1A3.78,3.78,0,0,1,164.34,44Zm1.52,0a2.75,2.75,0,0,0,.58,1.89,2,2,0,0,0,2.91,0,2.8,2.8,0,0,0,.57-1.91,2.76,2.76,0,0,0-.55-1.88,2,2,0,0,0-2.94,0A2.77,2.77,0,0,0,165.86,43.91Z" style="fill: #fff"/>
    <path d="M174,47.58V40.25h3.11a5.34,5.34,0,0,1,1.71.2,1.69,1.69,0,0,1,.85.7,2.12,2.12,0,0,1,.32,1.16,2,2,0,0,1-.48,1.36,2.32,2.32,0,0,1-1.45.68,3.47,3.47,0,0,1,.79.61,8.33,8.33,0,0,1,.84,1.19l.89,1.43H178.8L177.73,46a10.4,10.4,0,0,0-.78-1.08,1.14,1.14,0,0,0-.44-.31,2.44,2.44,0,0,0-.74-.08h-.3v3.06Zm1.48-4.23h1.09a5.63,5.63,0,0,0,1.33-.09.79.79,0,0,0,.41-.31,1,1,0,0,0,.15-.55.88.88,0,0,0-.2-.6.91.91,0,0,0-.56-.29q-.18,0-1.08,0h-1.15Z" style="fill: #fff"/>
    <path d="M182.76,47.58V40.25h1.48V43.5l3-3.25h2l-2.76,2.85,2.91,4.47h-1.91l-2-3.44-1.2,1.23v2.21Z" style="fill: #fff"/>
  </g>
  <line x1="57.78" y1="43.61" x2="77.12" y2="43.61" style="fill: none;stroke: #fff;stroke-miterlimit: 10"/>
  <line x1="192.42" y1="43.54" x2="211.76" y2="43.54" style="fill: none;stroke: #fff;stroke-miterlimit: 10"/>
  <g>
    <path d="M41.56,17.15l-2.72-2.71a20.46,20.46,0,0,1-5.61,3.88V11.1h-4v8.61a18,18,0,0,1-4.13.49,18.15,18.15,0,0,1-4.48-.57V11.1h-4v7a20.67,20.67,0,0,1-5.28-3.69L8.71,17.22a23.39,23.39,0,0,0,7.92,5.28V29H9.47v4.1h7.15v7.29h4V33.05h8.61v7.29h4V33.05h7.15V29H33.23v-6.3A23.48,23.48,0,0,0,41.56,17.15ZM29.27,29H20.65V23.74a22,22,0,0,0,4.48.46,21.81,21.81,0,0,0,4.13-.39Z" style="fill: #fff"/>
    <path d="M25.05,0A25.05,25.05,0,1,0,50.1,25.05,25.05,25.05,0,0,0,25.05,0Zm0,46.58A21.53,21.53,0,1,1,46.58,25.05,21.53,21.53,0,0,1,25.05,46.58Z" style="fill: #fff"/>
  </g>
</svg>
